<?xml version="1.0" encoding="UTF-8" standalone="no"?>
<svg
   xmlns:dc="http://purl.org/dc/elements/1.1/"
   xmlns:cc="http://creativecommons.org/ns#"
   xmlns:rdf="http://www.w3.org/1999/02/22-rdf-syntax-ns#"
   xmlns:svg="http://www.w3.org/2000/svg"
   xmlns="http://www.w3.org/2000/svg"
   xmlns:sodipodi="http://sodipodi.sourceforge.net/DTD/sodipodi-0.dtd"
   xmlns:inkscape="http://www.inkscape.org/namespaces/inkscape"
   id="Layer_1"
   data-name="Layer 1"
   viewBox="0 0 122.88 122.88"
   version="1.1"
   sodipodi:docname="email_icon_white.svg"
   inkscape:version="1.0.2 (e86c870879, 2021-01-15)">
  <metadata
     id="metadata11">
    <rdf:RDF>
      <cc:Work
         rdf:about="">
        <dc:format>image/svg+xml</dc:format>
        <dc:type
           rdf:resource="http://purl.org/dc/dcmitype/StillImage" />
        <dc:title>email-round</dc:title>
      </cc:Work>
    </rdf:RDF>
  </metadata>
  <defs
     id="defs9" />
  <sodipodi:namedview
     pagecolor="#ffffff"
     bordercolor="#666666"
     borderopacity="1"
     objecttolerance="10"
     gridtolerance="10"
     guidetolerance="10"
     inkscape:pageopacity="0"
     inkscape:pageshadow="2"
     inkscape:window-width="1920"
     inkscape:window-height="1016"
     id="namedview7"
     showgrid="false"
     inkscape:zoom="12.25586"
     inkscape:cx="71.860297"
     inkscape:cy="66.374939"
     inkscape:window-x="0"
     inkscape:window-y="0"
     inkscape:window-maximized="1"
     inkscape:current-layer="Layer_1" />
  <title
     id="title2">email-round</title>
  <path
     d="M61.44,0A61.46,61.46,0,1,1,18,18,61.21,61.21,0,0,1,61.44,0ZM32.22,79.39,52.1,59.46,32.22,43.25V79.39ZM54.29,61.24,33.79,81.79H88.91L69.33,61.24l-6.46,5.51h0a1.42,1.42,0,0,1-1.8,0l-6.78-5.53Zm17.18-1.82L90.66,79.55V43.07L71.47,59.42ZM34,41.09l27.9,22.76L88.65,41.09Zm65.4-17.64a53.72,53.72,0,1,0,15.74,38,53.56,53.56,0,0,0-15.74-38Z"
     id="path4" />
  <path
     style="fill:#ffffff;stroke:none;stroke-width:0.163187"
     d="m 58.502628,122.78538 c -3.681238,-0.31165 -5.137306,-0.4777 -7.172443,-0.81794 C 35.349659,119.29582 20.923621,110.28304 11.539832,97.108109 6.1591012,89.553512 2.5457517,80.887628 0.98829244,71.802389 0.30283583,67.803866 0.16757884,66.07511 0.17115983,61.358405 0.17468616,56.713667 0.35491154,54.568597 1.0829232,50.506453 2.8502613,40.6451 7.1607879,31.183684 13.535959,23.172589 15.373505,20.863512 19.167271,16.920745 21.418597,14.980355 30.938584,6.7752014 42.607128,1.7383662 55.182861,0.40569802 58.018905,0.10515848 64.061602,0.06204536 66.825178,0.322633 c 21.44566,2.0221894 39.974232,14.652778 49.516052,33.754195 3.15505,6.315975 5.07751,12.701017 6.06334,20.138021 0.39127,2.951698 0.47993,9.496129 0.17195,12.691922 -1.40167,14.544612 -7.51161,27.628693 -17.64498,37.785709 -2.79551,2.80204 -4.80181,4.51406 -7.835128,6.6859 -8.677198,6.21283 -19.073196,10.11357 -29.781672,11.17457 -1.841724,0.18248 -7.606202,0.33452 -8.812112,0.23243 z m 7.506614,-7.74635 c 9.022343,-0.81757 17.560641,-3.77415 24.943085,-8.63713 13.638733,-8.984123 22.333613,-23.368075 24.022183,-39.739909 0.23813,-2.308831 0.23832,-8.132393 3.3e-4,-10.443984 C 113.90681,45.843736 110.16292,36.487229 103.77637,28.231394 101.98826,25.91992 97.360746,21.240509 95.056572,19.413803 87.680586,13.566257 78.519785,9.5758259 69.436174,8.2535958 63.121327,7.3343929 56.376843,7.5282301 50.254649,8.8048751 38.306062,11.296482 27.201473,18.113988 19.50193,27.685074 13.167409,35.55934 9.3387902,44.711543 7.9754141,55.238883 7.6317442,57.892538 7.5828665,64.405791 7.8872421,66.988365 9.2136461,78.24267 13.409054,88.042185 20.457976,96.35073 c 9.075629,10.69742 22.700239,17.64899 36.739154,18.74511 1.722727,0.13451 7.082092,0.1 8.812112,-0.0568 z"
     id="path836" />
  <path
     style="fill:#ffffff;stroke:none;stroke-width:0.163187"
     d="m 44.136279,71.56348 c 8.832216,-8.833065 10.225866,-10.164533 10.443494,-9.97753 0.138128,0.11869 1.708106,1.401147 3.488839,2.849904 3.031004,2.465945 3.281031,2.63399 3.916494,2.632315 0.642122,-0.0017 0.85928,-0.15593 4.019331,-2.854754 2.589945,-2.211928 3.381947,-2.80736 3.524846,-2.650003 0.506521,0.557765 17.088225,17.989643 18.083137,19.010291 l 1.153273,1.183108 H 61.35481 33.943927 Z"
     id="path838" />
  <path
     style="fill:#ffffff;stroke:none;stroke-width:0.163187"
     d="m 32.229481,61.301906 v -17.92449 l 0.77514,0.640666 c 0.426326,0.352365 4.777306,3.895414 9.668844,7.873442 4.891538,3.978028 8.9843,7.314629 9.095028,7.414669 0.154234,0.139349 -2.107237,2.490216 -9.668844,10.051049 l -9.870168,9.869155 z"
     id="path840" />
  <path
     style="fill:#ffffff;stroke:none;stroke-width:0.163187"
     d="M 48.057281,52.423903 34.303937,41.20478 47.88485,41.163043 c 7.469503,-0.02296 19.63289,-0.02296 27.029751,0 l 13.448837,0.04174 -10.552284,8.975299 c -5.803758,4.936414 -11.733023,9.983498 -13.176143,11.215745 -1.443122,1.232245 -2.668977,2.241966 -2.724121,2.243824 -0.05515,0.0019 -6.289271,-5.045227 -13.853609,-11.215745 z"
     id="path842" />
  <path
     style="fill:#ffffff;stroke:none;stroke-width:0.163187"
     d="m 81.13889,69.414197 c -5.186518,-5.443146 -9.408988,-9.95233 -9.383267,-10.020407 0.02572,-0.06808 4.269236,-3.720979 9.430033,-8.117562 l 9.383266,-7.993787 0.04217,9.050524 c 0.02319,4.977788 0.02319,13.084176 0,18.014195 l -0.04217,8.96367 z"
     id="path844" />
  <path
     style="fill:#a0a0a0;stroke:none;stroke-width:0.0101992"
     d="m 33.952939,81.684067 v -0.05095 l 1.645349,-1.647214 c 0.904942,-0.905968 2.85979,-2.864856 4.344106,-4.353084 l 2.698758,-2.70587 0.05694,0.0031 0.05694,0.0031 -4.401043,4.400952 -4.401043,4.400952 z"
     id="path846" />
</svg>
