<?xml version="1.0" encoding="UTF-8" standalone="no"?>
<svg
   xmlns:dc="http://purl.org/dc/elements/1.1/"
   xmlns:cc="http://creativecommons.org/ns#"
   xmlns:rdf="http://www.w3.org/1999/02/22-rdf-syntax-ns#"
   xmlns:svg="http://www.w3.org/2000/svg"
   xmlns="http://www.w3.org/2000/svg"
   xmlns:sodipodi="http://sodipodi.sourceforge.net/DTD/sodipodi-0.dtd"
   xmlns:inkscape="http://www.inkscape.org/namespaces/inkscape"
   width="98"
   height="96"
   version="1.1"
   id="svg4"
   sodipodi:docname="github_mark.svg"
   inkscape:version="1.0.2 (e86c870879, 2021-01-15)">
  <metadata
     id="metadata10">
    <rdf:RDF>
      <cc:Work
         rdf:about="">
        <dc:format>image/svg+xml</dc:format>
        <dc:type
           rdf:resource="http://purl.org/dc/dcmitype/StillImage" />
      </cc:Work>
    </rdf:RDF>
  </metadata>
  <defs
     id="defs8" />
  <sodipodi:namedview
     pagecolor="#ffffff"
     bordercolor="#666666"
     borderopacity="1"
     objecttolerance="10"
     gridtolerance="10"
     guidetolerance="10"
     inkscape:pageopacity="0"
     inkscape:pageshadow="2"
     inkscape:window-width="2560"
     inkscape:window-height="1403"
     id="namedview6"
     showgrid="false"
     inkscape:zoom="7.84375"
     inkscape:cx="49"
     inkscape:cy="47.87251"
     inkscape:window-x="0"
     inkscape:window-y="0"
     inkscape:window-maximized="1"
     inkscape:current-layer="svg4" />
  <path
     fill-rule="evenodd"
     clip-rule="evenodd"
     d="M48.854 0C21.839 0 0 22 0 49.217c0 21.756 13.993 40.172 33.405 46.69 2.427.49 3.316-1.059 3.316-2.362 0-1.141-.08-5.052-.08-9.127-13.59 2.934-16.42-5.867-16.42-5.867-2.184-5.704-5.42-7.17-5.42-7.17-4.448-3.015.324-3.015.324-3.015 4.934.326 7.523 5.052 7.523 5.052 4.367 7.496 11.404 5.378 14.235 4.074.404-3.178 1.699-5.378 3.074-6.6-10.839-1.141-22.243-5.378-22.243-24.283 0-5.378 1.94-9.778 5.014-13.2-.485-1.222-2.184-6.275.486-13.038 0 0 4.125-1.304 13.426 5.052a46.97 46.97 0 0 1 12.214-1.63c4.125 0 8.33.571 12.213 1.63 9.302-6.356 13.427-5.052 13.427-5.052 2.67 6.763.97 11.816.485 13.038 3.155 3.422 5.015 7.822 5.015 13.2 0 18.905-11.404 23.06-22.324 24.283 1.78 1.548 3.316 4.481 3.316 9.126 0 6.6-.08 11.897-.08 13.526 0 1.304.89 2.853 3.316 2.364 19.412-6.52 33.405-24.935 33.405-46.691C97.707 22 75.788 0 48.854 0z"
     fill="#24292f"
     id="path2" />
  <path
     style="fill:#000000;stroke:none;stroke-width:0.12749"
     d="M 32.49004,95.506575 C 28.474144,94.047268 24.599997,92.038144 21.105082,89.602357 16.590293,86.455769 12.075271,81.937031 8.9006471,77.387878 1.2090872,66.366071 -1.6234876,52.584718 1.0728338,39.303143 2.9449081,30.081654 7.3998956,21.66251 14.003984,14.86554 25.825526,2.6987342 42.761328,-2.4012692 59.326693,1.2171772 c 9.610502,2.0992646 18.973883,7.5483916 25.491122,14.8348498 7.080681,7.916403 11.148644,16.934149 12.456542,27.613312 0.314837,2.57069 0.313839,8.364475 -0.0019,10.964143 -1.216989,10.020532 -4.820237,18.455347 -11.219205,26.262948 -1.372796,1.674996 -5.063441,5.282613 -6.899165,6.743952 -1.850686,1.473252 -4.523609,3.281933 -6.627047,4.484309 -3.165718,1.809601 -8.001265,3.819089 -9.174877,3.812764 -0.585109,-0.0031 -1.429793,-0.347688 -1.757668,-0.716928 -0.617871,-0.695819 -0.616328,-0.672663 -0.608106,-9.131218 0.0082,-8.484209 -0.02879,-9.105603 -0.659038,-11.057421 -0.386473,-1.196868 -1.162994,-2.640156 -1.831321,-3.403803 l -0.58004,-0.662767 0.418495,-0.06953 c 0.230172,-0.03824 1.164311,-0.186642 2.075864,-0.329778 10.365278,-1.6276 16.373966,-6.544604 18.613018,-15.231331 1.057073,-4.101066 1.318629,-9.550763 0.621059,-12.940239 -0.62797,-3.051298 -2.16672,-6.238739 -4.038123,-8.364767 -0.509954,-0.579337 -0.514417,-0.593076 -0.362174,-1.114883 0.553105,-1.895742 0.7017,-2.970358 0.707694,-5.117959 0.0049,-1.758136 -0.04827,-2.438252 -0.281654,-3.602282 -0.329342,-1.642629 -0.981842,-3.736972 -1.209306,-3.881534 -0.287529,-0.182738 -1.893604,-0.102923 -3.172239,0.157646 -2.414241,0.491992 -5.721292,1.970789 -8.732927,3.905059 l -1.507901,0.96847 -0.828685,-0.207816 c -4.151373,-1.041076 -7.698418,-1.416378 -12.430279,-1.315211 -3.958524,0.08463 -6.342301,0.378843 -9.956061,1.228795 l -1.159249,0.272654 -1.454297,-0.924908 c -3.118975,-1.983614 -6.622267,-3.524516 -9.083918,-3.995507 -1.296611,-0.248083 -2.681555,-0.252074 -2.925201,-0.0084 -0.23467,0.234669 -0.798781,2.007162 -1.124803,3.534238 -0.327416,1.533605 -0.454323,4.621695 -0.252151,6.135696 0.08222,0.615705 0.293002,1.614702 0.468409,2.219995 l 0.318921,1.100531 -0.383742,0.457296 c -1.433067,1.70775 -2.870807,4.268865 -3.561252,6.343831 -0.751887,2.259611 -0.96542,3.750259 -0.964773,6.73498 2.55e-4,1.47251 0.07275,3.308366 0.160952,4.079681 1.221037,10.677505 6.660327,16.828231 16.909165,19.120815 1.13782,0.254521 4.492933,0.82483 4.887514,0.830788 0.02138,3.83e-4 -0.23159,0.330469 -0.562159,0.733656 -1.011564,1.233778 -2.217754,4.184872 -2.217754,5.42601 0,0.270244 -0.121745,0.364538 -0.843956,0.653658 -2.119825,0.848625 -4.690805,1.157403 -6.531459,0.784439 -2.797371,-0.566819 -4.669131,-1.951053 -6.607485,-4.886468 -2.032367,-3.077785 -4.135479,-4.700636 -6.744869,-5.204624 -1.944575,-0.375583 -3.594443,0.176746 -3.299917,1.104719 0.147555,0.464903 0.855114,1.148172 1.96523,1.897762 2.009823,1.357106 3.482009,3.15161 4.678168,5.702395 1.262612,2.692494 1.457818,3.056737 2.01591,3.761545 0.852198,1.076232 2.13608,2.075537 3.57555,2.783015 2.791232,1.37185 6.026873,1.698576 10.16733,1.026671 l 1.370518,-0.222405 -0.0028,4.789829 c -0.0026,4.374315 -0.02312,4.834067 -0.236974,5.299789 -0.278541,0.606574 -0.562855,0.878396 -1.19506,1.142547 -0.701075,0.292928 -1.433496,0.229767 -2.708592,-0.233582 z"
     id="path835" />
</svg>
