<?xml version="1.0" encoding="UTF-8" standalone="no"?>
<svg
   xmlns:dc="http://purl.org/dc/elements/1.1/"
   xmlns:cc="http://creativecommons.org/ns#"
   xmlns:rdf="http://www.w3.org/1999/02/22-rdf-syntax-ns#"
   xmlns:svg="http://www.w3.org/2000/svg"
   xmlns="http://www.w3.org/2000/svg"
   xmlns:sodipodi="http://sodipodi.sourceforge.net/DTD/sodipodi-0.dtd"
   xmlns:inkscape="http://www.inkscape.org/namespaces/inkscape"
   width="30.615"
   height="30.615"
   viewBox="0 0 30.615 30.615"
   version="1.1"
   id="svg3"
   sodipodi:docname="linkedin_mark_white.svg"
   inkscape:version="1.0.2 (e86c870879, 2021-01-15)">
  <metadata
     id="metadata9">
    <rdf:RDF>
      <cc:Work
         rdf:about="">
        <dc:format>image/svg+xml</dc:format>
        <dc:type
           rdf:resource="http://purl.org/dc/dcmitype/StillImage" />
        <dc:title></dc:title>
      </cc:Work>
    </rdf:RDF>
  </metadata>
  <defs
     id="defs7" />
  <sodipodi:namedview
     pagecolor="#ffffff"
     bordercolor="#666666"
     borderopacity="1"
     objecttolerance="10"
     gridtolerance="10"
     guidetolerance="10"
     inkscape:pageopacity="0"
     inkscape:pageshadow="2"
     inkscape:window-width="1920"
     inkscape:window-height="1016"
     id="namedview5"
     showgrid="false"
     inkscape:zoom="24.595787"
     inkscape:cx="15.3075"
     inkscape:cy="15.266843"
     inkscape:window-x="0"
     inkscape:window-y="0"
     inkscape:window-maximized="1"
     inkscape:current-layer="svg3" />
  <path
     id="Linkedin-Icon-SVG-09yudf"
     d="M766.808,561a15.308,15.308,0,1,0,15.308,15.308A15.309,15.309,0,0,0,766.808,561Zm-4.448,23.141h-3.728V572.925h3.728ZM760.5,571.393h-.024a2.13,2.13,0,1,1,.024,0ZM775.8,584.141h-3.728v-6c0-1.508-.54-2.537-1.889-2.537a2.04,2.04,0,0,0-1.913,1.363,2.551,2.551,0,0,0-.123.91v6.263h-3.728s.049-10.164,0-11.216h3.728v1.588a3.7,3.7,0,0,1,3.36-1.851c2.453,0,4.292,1.6,4.292,5.048Zm0,0"
     transform="translate(-751.5 -561)" />
  <path
     style="fill:#f9f9f9;stroke:none;stroke-width:0.0406574"
     d="M 14.53501,30.572025 C 11.557156,30.425476 8.6202862,29.371251 6.2183321,27.58665 4.2398839,26.116705 2.6678538,24.226179 1.5861376,22.015966 -0.87403332,16.989228 -0.41114242,11.149185 2.8149622,6.5125553 3.2772368,5.8481639 3.7863428,5.2436241 4.4432529,4.5790363 6.8698189,2.1241095 9.9699239,0.58729047 13.396603,0.14058061 c 1.069182,-0.13938092 2.752612,-0.13938092 3.821793,0 7.242533,0.94415319 12.767586,6.77142969 13.335454,14.06491039 0.300779,3.863081 -0.993008,7.87275 -3.512705,10.886479 -3.090158,3.696039 -7.701142,5.716523 -12.506135,5.480055 z M 10.875847,17.543655 V 11.912609 H 8.9852788 7.0947111 v 5.631046 5.631046 h 1.8905677 1.8905682 z m 5.783149,2.225991 c 0.01285,-3.29607 0.01594,-3.413673 0.09649,-3.674322 0.112882,-0.365287 0.270036,-0.62231 0.54675,-0.894205 0.422469,-0.415111 0.914878,-0.590572 1.555088,-0.554128 0.306856,0.01747 0.401273,0.04167 0.658486,0.168792 0.462966,0.22881 0.737017,0.607096 0.92636,1.2787 0.086,0.305038 0.08785,0.373152 0.10062,3.695492 l 0.01301,3.384726 h 1.891533 1.891533 l -0.01524,-3.648999 c -0.015,-3.591942 -0.01669,-3.656908 -0.108086,-4.154804 -0.205965,-1.122 -0.565265,-1.894339 -1.180642,-2.537867 -0.782272,-0.818057 -1.742102,-1.181912 -3.112784,-1.180002 -0.496923,6.91e-4 -0.673858,0.01755 -0.955448,0.09103 -0.417019,0.108819 -0.942466,0.352401 -1.277795,0.592348 -0.304181,0.217659 -0.722009,0.639854 -0.892009,0.901332 l -0.127337,0.195857 -0.01106,-0.760493 -0.01106,-0.760493 h -1.869342 -1.869342 v 5.631046 5.631046 h 1.868502 1.868502 z M 9.4167962,10.367012 c 0.3837934,-0.07233 0.7872408,-0.294537 1.0877068,-0.5990662 0.444151,-0.4501572 0.615288,-0.8717253 0.615288,-1.5156624 0,-0.3979471 -0.07015,-0.6790851 -0.257987,-1.0339816 C 10.338458,6.2295162 9.0712228,5.8359065 8.0425385,6.3426246 6.9567476,6.8774727 6.5419709,8.1420714 7.0848671,9.2624385 c 0.1450554,0.2993488 0.5696143,0.7256426 0.8894288,0.8930635 0.4363829,0.228444 0.9517232,0.304007 1.4425003,0.21151 z"
     id="path834" />
</svg>
